<svg class="h-4 w-auto md:h-6" width="100" height="100" viewBox="0 0 100 100" fill="none" xmlns="http://www.w3.org/2000/svg">
                        <path d="M29.8576 81.6596C30.3063 82.0281 30.836 82.2528 31.3838 82.3298C32.0826 82.4281 32.811 82.2855 33.4397 81.8941L67.183 60.8675C67.882 60.432 68.3812 59.7217 68.5528 58.9188C68.7243 58.1158 68.5591 57.2639 68.0988 56.5814L59.055 43.1677L67.9486 22.5065C68.482 21.2678 68.1457 19.8488 67.1122 18.9754C66.0784 18.1021 64.617 18.0023 63.4752 18.7268L32.0923 38.6474C30.7506 39.4989 30.2886 41.2609 31.0401 42.6593L37.827 55.2784L28.9451 78.2046C28.4698 79.4324 28.8362 80.8208 29.8576 81.6596Z" fill="#63B3ED"/>
                        <rect x="65.0031" y="13.9092" width="9.09161" height="9.09161" fill="black"/>
                        <rect x="33.1824" y="29.3649" width="9.09161" height="9.09161" fill="black"/>
                        <rect x="39.5466" y="25.7283" width="9.09161" height="9.09161" fill="black"/>
                        <rect x="45.9107" y="22.0916" width="9.09161" height="9.09161" fill="black"/>
                        <rect x="52.2748" y="18.455" width="9.09161" height="9.09161" fill="black"/>
                        <rect x="56.8206" y="13" width="9.09161" height="9.09161" fill="black"/>
                        <rect x="58.6389" y="30.2741" width="9.09161" height="9.09161" fill="black"/>
                        <rect x="63.1848" y="23.0008" width="9.09161" height="9.09161" fill="black"/>
                        <rect x="26.8183" y="75.7321" width="9.09161" height="9.09161" fill="black"/>
                        <rect x="63.1848" y="53.9122" width="9.09161" height="9.09161" fill="black"/>
                        <rect x="59.5481" y="59.3672" width="9.09161" height="9.09161" fill="black"/>
                        <rect x="52.2748" y="63.0039" width="9.09161" height="9.09161" fill="black"/>
                        <rect x="46.8199" y="66.6405" width="9.09161" height="9.09161" fill="black"/>
                        <rect x="41.3649" y="70.2771" width="9.09161" height="9.09161" fill="black"/>
                        <rect x="35.9099" y="74.823" width="9.09161" height="9.09161" fill="black"/>
                        <rect x="26.8183" y="35.729" width="9.09161" height="9.09161" fill="black"/>
                        <rect x="33.1824" y="50.2756" width="9.09161" height="9.09161" fill="black"/>
                        <rect x="31.3641" y="57.5489" width="9.09161" height="9.09161" fill="black"/>
                        <rect x="28.6367" y="63.913" width="9.09161" height="9.09161" fill="black"/>
                        <rect x="25.9091" y="70.2771" width="9.09161" height="9.09161" fill="black"/>
                        <rect x="54.0931" y="38.4565" width="9.09161" height="9.09161" fill="black"/>
                        <rect x="59.5481" y="44.8206" width="9.09161" height="9.09161" fill="black"/>
                        <rect x="30.455" y="43.0023" width="9.09161" height="9.09161" fill="black"/>
                        </svg>