<svg width="100" height="100" viewBox="0 0 100 100" fill="none" xmlns="http://www.w3.org/2000/svg">
                      <path d="M48.6 79C47.6433 79 46.721 78.6522 46.0022 78.0203C43.2874 75.6381 40.6701 73.3994 38.361 71.4246L38.3492 71.4143C31.579 65.6244 25.7328 60.6242 21.665 55.6986C17.1179 50.1922 15 44.9713 15 39.2677C15 33.7263 16.8934 28.6139 20.331 24.8718C23.8096 21.0854 28.5828 19 33.7729 19C37.6519 19 41.2044 20.2307 44.3313 22.6578C45.9094 23.8829 47.3398 25.3822 48.6 27.1311C49.8607 25.3822 51.2906 23.8829 52.8692 22.6578C55.9961 20.2307 59.5486 19 63.4277 19C68.6172 19 73.3909 21.0854 76.8695 24.8718C80.3071 28.6139 82.2 33.7263 82.2 39.2677C82.2 44.9713 80.0826 50.1922 75.5355 55.6981C71.4677 60.6242 65.622 65.6238 58.8529 71.4133C56.5396 73.3911 53.9182 75.6335 51.1973 78.0214C50.479 78.6522 49.5562 79 48.6 79Z" fill="#E53E3E"/>
                      <path d="M52.4 79C53.3567 79 54.279 78.6522 54.9978 78.0203C57.7126 75.6381 60.3299 73.3994 62.639 71.4246L62.6508 71.4143C69.421 65.6244 75.2672 60.6242 79.335 55.6986C83.8821 50.1922 86 44.9713 86 39.2677C86 33.7263 84.1066 28.6139 80.669 24.8718C77.1904 21.0854 72.4172 19 67.2271 19C63.3481 19 59.7956 20.2307 56.6687 22.6578C55.0906 23.8829 53.6602 25.3822 52.4 27.1311C51.1393 25.3822 49.7094 23.8829 48.1308 22.6578C45.0039 20.2307 41.4514 19 37.5723 19C32.3828 19 27.6091 21.0854 24.1305 24.8718C20.6929 28.6139 18.8 33.7263 18.8 39.2677C18.8 44.9713 20.9174 50.1922 25.4645 55.6981C29.5323 60.6242 35.378 65.6238 42.1471 71.4133C44.4604 73.3911 47.0818 75.6335 49.8027 78.0214C50.521 78.6522 51.4438 79 52.4 79Z" fill="#E53E3E"/>
                      <rect width="16" height="16" transform="matrix(-1 0 0 1 60 71)" fill="black"/>
                      <rect width="16" height="16" transform="matrix(-1 0 0 1 60 19)" fill="black"/>
                      <rect width="16" height="16" transform="matrix(-1 0 0 1 49 65)" fill="black"/>
                      <rect width="16" height="16" transform="matrix(-1 0 0 1 25 33)" fill="black"/>
                      <rect width="16" height="16" transform="matrix(-1 0 0 1 44 13)" fill="black"/>
                      <rect width="16" height="16" transform="matrix(-1 0 0 1 28 19)" fill="black"/>
                      <rect width="16" height="16" transform="matrix(-1 0 0 1 31 49)" fill="black"/>
                      <rect width="16" height="16" transform="matrix(-1 0 0 1 41 60)" fill="black"/>
                      <rect x="41" y="71" width="16" height="16" fill="black"/>
                      <rect x="41" y="19" width="16" height="16" fill="black"/>
                      <rect x="52" y="65" width="16" height="16" fill="black"/>
                      <rect x="76" y="33" width="16" height="16" fill="black"/>
                      <rect x="57" y="13" width="16" height="16" fill="black"/>
                      <rect x="73" y="19" width="16" height="16" fill="black"/>
                      <rect x="70" y="49" width="16" height="16" fill="black"/>
                      <rect x="60" y="60" width="16" height="16" fill="black"/>
                      </svg>