<svg class="h-4 w-auto md:h-6" width="100" height="100" viewBox="0 0 100 100" fill="none" xmlns="http://www.w3.org/2000/svg">
                      <path d="M68.8021 18.4412H50.2392H31.6763C31.6763 24.5487 26.7252 29.4999 20.6176 29.4999V41.0278C20.6176 60.0485 32.4243 77.071 50.2392 83.7353C68.0541 77.071 79.8608 60.0485 79.8608 41.028V29.4999C73.7533 29.4999 68.8021 24.5487 68.8021 18.4412Z" fill="#F6E05E"/>
                      <path d="M68.8021 18.4412H50.2392C50.2392 18.4412 50.2392 25.8412 50.2392 36.2882C50.2392 46.7353 50.2392 41.028 50.2392 47.6059L50.2392 57.1824C50.2392 76.203 50.2392 71.9824 50.2392 83.7353C68.0541 77.0709 79.8608 60.0485 79.8608 41.028V29.4999C73.7533 29.4999 68.8021 24.5487 68.8021 18.4412Z" fill="#ECC94B"/>
                      <rect x="24.9706" y="13" width="10.8824" height="10.8824" fill="black"/>
                      <rect x="35.8529" y="13" width="10.8824" height="10.8824" fill="black"/>
                      <rect x="39.1176" y="13" width="10.8824" height="10.8824" fill="black"/>
                      <rect x="24.9706" y="18.4412" width="10.8824" height="10.8824" fill="black"/>
                      <rect x="20.6176" y="23.8824" width="10.8824" height="10.8824" fill="black"/>
                      <rect x="13" y="29.3235" width="10.8824" height="10.8824" fill="black"/>
                      <rect x="13" y="34.7647" width="10.8824" height="10.8824" fill="black"/>
                      <rect x="13" y="42.3824" width="10.8824" height="10.8824" fill="black"/>
                      <rect x="15.1765" y="47.8235" width="10.8824" height="10.8824" fill="black"/>
                      <rect x="19.5294" y="55.4412" width="10.8824" height="10.8824" fill="black"/>
                      <rect x="26.0588" y="65.2353" width="10.8824" height="10.8824" fill="black"/>
                      <rect x="31.5" y="70.6765" width="10.8824" height="10.8824" fill="black"/>
                      <rect x="36.9412" y="76.1176" width="10.8824" height="10.8824" fill="black"/>
                      <rect x="42.3824" y="76.1176" width="10.8824" height="10.8824" fill="black"/>
                      <rect width="10.8824" height="10.8824" transform="matrix(-1 0 0 1 75.0294 13)" fill="black"/>
                      <rect width="10.8824" height="10.8824" transform="matrix(-1 0 0 1 64.1471 13)" fill="black"/>
                      <rect width="10.8824" height="10.8824" transform="matrix(-1 0 0 1 60.8824 13)" fill="black"/>
                      <rect width="10.8824" height="10.8824" transform="matrix(-1 0 0 1 75.0294 18.4412)" fill="black"/>
                      <rect width="10.8824" height="10.8824" transform="matrix(-1 0 0 1 79.3824 23.8824)" fill="black"/>
                      <rect width="10.8824" height="10.8824" transform="matrix(-1 0 0 1 87 29.3235)" fill="black"/>
                      <rect width="10.8824" height="10.8824" transform="matrix(-1 0 0 1 87 34.7647)" fill="black"/>
                      <rect width="10.8824" height="10.8824" transform="matrix(-1 0 0 1 87 42.3824)" fill="black"/>
                      <rect width="10.8824" height="10.8824" transform="matrix(-1 0 0 1 84.8235 47.8235)" fill="black"/>
                      <rect width="10.8824" height="10.8824" transform="matrix(-1 0 0 1 80.4706 55.4412)" fill="black"/>
                      <rect width="10.8824" height="10.8824" transform="matrix(-1 0 0 1 73.9412 65.2353)" fill="black"/>
                      <rect width="10.8824" height="10.8824" transform="matrix(-1 0 0 1 68.5 70.6765)" fill="black"/>
                      <rect width="10.8824" height="10.8824" transform="matrix(-1 0 0 1 63.0588 76.1176)" fill="black"/>
                      <rect width="10.8824" height="10.8824" transform="matrix(-1 0 0 1 57.6176 76.1176)" fill="black"/>
                      </svg>